<svg xmlns="http://www.w3.org/2000/svg" viewBox="0 0 500 500"><defs><style>.a{fill:#ccaa81;}</style></defs><path class="a" d="M270.25,133a7.51,7.51,0,0,1-1.15-.09,125.18,125.18,0,0,0-38.21,0,7.5,7.5,0,0,1-8.29-9.71L242.86,60.4a7.5,7.5,0,0,1,14.28,0l20.25,62.79a7.5,7.5,0,0,1-7.14,9.8ZM250,116.43c3.18,0,6.37.11,9.56.33L250,87.13l-9.56,29.63C243.63,116.54,246.82,116.43,250,116.43Z"/><path class="a" d="M349,177.11a7.5,7.5,0,0,1-5.73-2.66,120.72,120.72,0,0,0-29.13-25,7.5,7.5,0,0,1-.07-12.74l56-35.18a7.5,7.5,0,0,1,10.94,9.18L356,172.44a7.5,7.5,0,0,1-6.95,4.68Zm-17.2-33.82a135.59,135.59,0,0,1,14.69,12.58l11.9-29.27Z"/><path class="a" d="M121.54,262.44a7.5,7.5,0,0,1-3.51-.87L56.3,228.92a7.5,7.5,0,0,1,2.48-14.06L126,205.55a7.5,7.5,0,0,1,8.19,9.67,116.37,116.37,0,0,0-5.3,34.78c0,1.39,0,2.91.1,4.64a7.5,7.5,0,0,1-7.49,7.79ZM83.87,226.53l30.27,16a131.34,131.34,0,0,1,2.8-20.59Z"/><path class="a" d="M378.46,262.44a7.5,7.5,0,0,1-7.49-7.79c.07-1.74.1-3.26.1-4.64a116.37,116.37,0,0,0-5.29-34.78,7.5,7.5,0,0,1,8.19-9.67l67.25,9.31a7.5,7.5,0,0,1,2.48,14.06L382,261.57A7.5,7.5,0,0,1,378.46,262.44Zm4.6-40.48a131.41,131.41,0,0,1,2.8,20.59l30.27-16Z"/><path class="a" d="M151,177.11a7.5,7.5,0,0,1-6.95-4.68l-25.09-61.73a7.5,7.5,0,0,1,10.94-9.18l56,35.18a7.5,7.5,0,0,1-.06,12.74,120.72,120.72,0,0,0-29.13,25A7.5,7.5,0,0,1,151,177.11Zm-9.39-50.51,11.9,29.27a135.54,135.54,0,0,1,14.69-12.58Z"/><path class="a" d="M417.25,359.89a7.55,7.55,0,0,1-1.58-.17l-73.76-15.84a7.5,7.5,0,0,1-3.83-12.54,118,118,0,0,0,23.67-35.64,7.5,7.5,0,0,1,12.46-2.09l48.6,53.75a7.5,7.5,0,0,1-5.56,12.53Zm-59.74-28,38.58,8.29L370.58,312A132.61,132.61,0,0,1,357.51,331.88Z"/><path class="a" d="M82.75,359.89a7.5,7.5,0,0,1-5.56-12.53l48.6-53.75a7.5,7.5,0,0,1,12.46,2.09,118.07,118.07,0,0,0,23.67,35.65,7.5,7.5,0,0,1-3.83,12.54L84.33,359.72A7.54,7.54,0,0,1,82.75,359.89ZM129.42,312l-25.51,28.22,38.58-8.29A132.55,132.55,0,0,1,129.42,312Z"/><path class="a" d="M316.05,444.8a7.5,7.5,0,0,1-5.92-2.9l-48.54-62.4a7.5,7.5,0,0,1,4.93-12,121.56,121.56,0,0,0,43-14.21,7.5,7.5,0,0,1,11.13,6.28L323.55,437a7.5,7.5,0,0,1-7.49,7.78Zm-35-64.72,26.66,34.27-1.58-42.63A136.14,136.14,0,0,1,281,380.07Z"/><path class="a" d="M183.95,444.8a7.5,7.5,0,0,1-7.49-7.78l2.87-77.48a7.5,7.5,0,0,1,11.13-6.28,121.58,121.58,0,0,0,43,14.21,7.5,7.5,0,0,1,4.93,12l-48.54,62.4A7.5,7.5,0,0,1,183.95,444.8Zm9.94-73.08-1.58,42.63L219,380.07A136.07,136.07,0,0,1,193.88,371.71Z"/><path class="a" d="M250,359.45c-61.47,0-111.47-49.1-111.47-109.45s50-109.45,111.47-109.45S361.47,189.65,361.47,250,311.47,359.45,250,359.45Zm0-203.9c-53.2,0-96.47,42.37-96.47,94.45S196.8,344.45,250,344.45s96.47-42.37,96.47-94.45S303.2,155.55,250,155.55Z"/></svg>