<svg xmlns="http://www.w3.org/2000/svg" viewBox="0 0 500 500"><defs><style>.a{fill:#ccaa81;}</style></defs><path class="a" d="M352.49,143.59A75.5,75.5,0,0,0,305,160.25a120.87,120.87,0,0,1,9.49,11.61,60.58,60.58,0,0,1,38-13.27c33.1,0,60,26.34,60,58.72a58,58,0,0,1-19.26,43,97.91,97.91,0,0,1,8.84,12.19,73,73,0,0,0,25.41-55.23C427.53,176.66,393.87,143.59,352.49,143.59Z"/><path class="a" d="M392.81,154.24a75.79,75.79,0,0,1,18.29,15.69,7.5,7.5,0,0,0,12.68-2l16.3-40.1a7.5,7.5,0,0,0-10.94-9.18L392.74,141.5a7.5,7.5,0,0,0,.07,12.74Zm24.61-10.53-3.21,7.9q-1.93-1.75-4-3.39Z"/><path class="a" d="M340.49,143.85a78.7,78.7,0,0,1,24,0,7.5,7.5,0,0,0,8.29-9.71L359.63,93.35a7.5,7.5,0,0,0-14.28,0L332.2,134.13a7.5,7.5,0,0,0,8.29,9.71Zm12-23.77L355,128c-1.7,0-3.38,0-5.08,0Z"/><path class="a" d="M266.85,132.59a120.06,120.06,0,0,1,21.3,12.56l-.58-1.44,7.18,4.51c-.44.35-.85.73-1.28,1.09a121,121,0,0,1,11,10.34,76.44,76.44,0,0,1,7.7-5.41,7.5,7.5,0,0,0,.07-12.74l-36.39-22.85a7.5,7.5,0,0,0-10.94,9.18Z"/><path class="a" d="M483.42,198a7.5,7.5,0,0,0-6.36-6.13l-43.69-6a7.5,7.5,0,0,0-8.19,9.67,73,73,0,0,1,3.32,21.81c0,1,0,2-.06,2.92a7.5,7.5,0,0,0,11,6.92l40.09-21.21A7.5,7.5,0,0,0,483.42,198ZM443,208.27q-.31-3.05-.84-6.07l9.76,1.35Z"/><path class="a" d="M435.13,243.87A7.5,7.5,0,0,0,422.67,246a74.1,74.1,0,0,1-14.85,22.36,7.5,7.5,0,0,0,3.83,12.54l47.91,10.29a7.5,7.5,0,0,0,7.14-12.36Zm-8.22,24.92q2.36-3.28,4.41-6.77L440,271.6Z"/><path class="a" d="M319.52,411.85H126.42a109.94,109.94,0,0,1-7.27-219.64,109.95,109.95,0,0,1,207.73,44.46,87.77,87.77,0,0,1-6.67,175.15Q319.87,411.85,319.52,411.85ZM217.07,147.26a95.26,95.26,0,0,0-86.31,55.38,7.5,7.5,0,0,1-6.64,4.37,94.94,94.94,0,0,0,2.3,189.85H318.94l.5,0a72.77,72.77,0,0,0,0-145.53,7.5,7.5,0,0,1-7.42-7.61c0-.28,0-.56,0-.83s0-.43,0-.64A95.06,95.06,0,0,0,217.07,147.26Z"/></svg>