<svg xmlns="http://www.w3.org/2000/svg" viewBox="0 0 500 500"><defs><style>.a{fill:#ccaa81;}</style></defs><path class="a" d="M358.06,389.79H165a109.94,109.94,0,0,1-7.27-219.64,109.95,109.95,0,0,1,207.73,44.46,87.77,87.77,0,0,1-6.67,175.15Q358.41,389.79,358.06,389.79ZM255.61,125.21a95.26,95.26,0,0,0-86.31,55.38,7.5,7.5,0,0,1-6.64,4.37A94.94,94.94,0,0,0,165,374.79H357.48l.5,0a72.77,72.77,0,0,0,0-145.53,7.5,7.5,0,0,1-7.42-7.61c0-.28,0-.56,0-.83s0-.43,0-.64A95.06,95.06,0,0,0,255.61,125.21Z"/></svg>