<svg xmlns="http://www.w3.org/2000/svg" viewBox="0 0 500 500"><defs><style>.a{fill:#ccaa81;}</style></defs><path class="a" d="M427.29,167.89A78,78,0,0,0,282.68,133.4a120.63,120.63,0,0,1,12.17,8.88,63,63,0,0,1,117.66,31.53c0,.12,0,.24,0,.36s0,.41,0,.61a7.5,7.5,0,0,0,7.42,7.62,47.78,47.78,0,0,1,0,95.56l-.41,0h-9.61a96.66,96.66,0,0,1,5,15H420l.6,0a62.78,62.78,0,0,0,6.68-125.06Z"/><path class="a" d="M382.35,254.7a87.19,87.19,0,0,0-54.15-25.62,109.95,109.95,0,0,0-207.73-44.46,109.94,109.94,0,0,0,7.27,219.64h193.1q.35,0,.69,0A87.77,87.77,0,0,0,382.35,254.7ZM320.76,389.23l-.5,0H127.74a94.94,94.94,0,0,1-2.3-189.85,7.5,7.5,0,0,0,6.64-4.37,95,95,0,0,1,181.26,39.58c0,.21,0,.43,0,.64s0,.55,0,.83a7.5,7.5,0,0,0,7.42,7.61,72.77,72.77,0,0,1,0,145.53Z"/></svg>