<svg xmlns="http://www.w3.org/2000/svg" viewBox="0 0 500 500"><defs><style>.a{fill:#ccaa81;}</style></defs><path class="a" d="M427.29,125.68A78,78,0,0,0,282.68,91.19a120.63,120.63,0,0,1,12.17,8.88A63,63,0,0,1,412.51,131.6c0,.12,0,.24,0,.36s0,.41,0,.61a7.5,7.5,0,0,0,7.42,7.62,47.78,47.78,0,0,1,0,95.56l-.41,0h-9.61a96.66,96.66,0,0,1,5,15H420l.6,0a62.78,62.78,0,0,0,6.68-125.06Z"/><path class="a" d="M162.28,413.61a7.5,7.5,0,0,1-7.5-7.5V310.39a7.5,7.5,0,0,1,15,0v95.71A7.5,7.5,0,0,1,162.28,413.61Z"/><path class="a" d="M212.78,446.47a7.5,7.5,0,0,1-7.5-7.5V378.25a7.5,7.5,0,0,1,15,0V439A7.5,7.5,0,0,1,212.78,446.47Z"/><path class="a" d="M212.78,341.47a7.5,7.5,0,0,1-7.5-7.5V274a7.5,7.5,0,0,1,15,0v60A7.5,7.5,0,0,1,212.78,341.47Z"/><path class="a" d="M263.28,394.32a7.5,7.5,0,0,1-7.5-7.5V319.39a7.5,7.5,0,1,1,15,0v67.43A7.5,7.5,0,0,1,263.28,394.32Z"/><path class="a" d="M382.35,212.49a87.19,87.19,0,0,0-54.15-25.62,109.95,109.95,0,0,0-207.73-44.46A109.94,109.94,0,0,0,127.74,362h7.58V347h-7.58a94.94,94.94,0,0,1-2.3-189.85,7.5,7.5,0,0,0,6.64-4.37,95,95,0,0,1,181.26,39.58c0,.21,0,.43,0,.64s0,.55,0,.83a7.5,7.5,0,0,0,7.42,7.61,72.77,72.77,0,0,1,0,145.53l-.5,0H289.69v15h31.15q.35,0,.69,0a87.77,87.77,0,0,0,60.82-149.53Z"/></svg>