<svg xmlns="http://www.w3.org/2000/svg" viewBox="0 0 500 500"><defs><style>.a{fill:#ccaa81;}</style></defs><path class="a" d="M427.29,136.82a78,78,0,0,0-144.61-34.49,120.63,120.63,0,0,1,12.17,8.88,63,63,0,0,1,117.66,31.53c0,.12,0,.24,0,.36s0,.41,0,.61a7.5,7.5,0,0,0,7.42,7.62,47.78,47.78,0,0,1,0,95.56l-.41,0h-9.61a96.66,96.66,0,0,1,5,15H420l.6,0a62.78,62.78,0,0,0,6.68-125.06Z"/><path class="a" d="M382.35,223.63A87.19,87.19,0,0,0,328.2,198a109.95,109.95,0,0,0-207.73-44.46,109.94,109.94,0,0,0,7.27,219.64h7.58v-15h-7.58a94.94,94.94,0,0,1-2.3-189.85,7.5,7.5,0,0,0,6.64-4.37,95,95,0,0,1,181.26,39.58c0,.21,0,.43,0,.64s0,.55,0,.83a7.5,7.5,0,0,0,7.42,7.61,72.77,72.77,0,0,1,0,145.53l-.5,0H289.69v15h31.15q.35,0,.69,0a87.77,87.77,0,0,0,60.82-149.53Z"/><path class="a" d="M274.6,389.66l-9.34-5.39a7.5,7.5,0,1,0-7.5,13l9.34,5.39a7.5,7.5,0,0,0,7.5-13Z"/><path class="a" d="M174.24,331.72l-9.34-5.39a7.5,7.5,0,1,0-7.5,13l9.34,5.39a7.5,7.5,0,0,0,7.5-13Z"/><path class="a" d="M166.74,384.27l-9.34,5.39a7.5,7.5,0,1,0,7.5,13l9.34-5.39a7.5,7.5,0,0,0-7.5-13Z"/><path class="a" d="M261.51,345.72a7.47,7.47,0,0,0,3.74-1l9.34-5.39a7.5,7.5,0,0,0-7.5-13l-9.34,5.39a7.5,7.5,0,0,0,3.76,14Z"/><path class="a" d="M216,319.44a7.5,7.5,0,0,0,7.5-7.5V301.16a7.5,7.5,0,0,0-15,0v10.79A7.5,7.5,0,0,0,216,319.44Z"/><path class="a" d="M247.18,373.83,231,364.49l16.17-9.34a7.5,7.5,0,0,0-7.5-13L223.5,351.5V332.83a7.5,7.5,0,0,0-15,0V351.5l-16.17-9.34a7.5,7.5,0,1,0-7.5,13L201,364.49l-16.17,9.34a7.5,7.5,0,1,0,7.5,13l16.17-9.34v18.68a7.5,7.5,0,0,0,15,0V377.48l16.18,9.34a7.5,7.5,0,0,0,7.5-13Z"/><path class="a" d="M216,409.54a7.5,7.5,0,0,0-7.5,7.5v10.78a7.5,7.5,0,1,0,15,0V417A7.5,7.5,0,0,0,216,409.54Z"/></svg>